<mxfile host="Electron" modified="2023-04-25T14:44:28.403Z" agent="Mozilla/5.0 (Macintosh; Intel Mac OS X 10_15_7) AppleWebKit/537.36 (KHTML, like Gecko) draw.io/21.2.1 Chrome/112.0.5615.87 Electron/24.1.2 Safari/537.36" etag="f1Hd5epRrqrvfGVuW6j5" version="21.2.1" type="device">
  <diagram name="Page-1" id="2YBvvXClWsGukQMizWep">
    <mxGraphModel dx="1114" dy="999" grid="1" gridSize="10" guides="1" tooltips="1" connect="1" arrows="1" fold="1" page="1" pageScale="1" pageWidth="850" pageHeight="1100" math="0" shadow="0">
      <root>
        <mxCell id="0" />
        <mxCell id="1" parent="0" />
        <mxCell id="_97RWvJLyAXWragwrNbq-6" style="edgeStyle=orthogonalEdgeStyle;rounded=0;orthogonalLoop=1;jettySize=auto;html=1;entryX=0.5;entryY=0;entryDx=0;entryDy=0;" edge="1" parent="1" source="_97RWvJLyAXWragwrNbq-3" target="_97RWvJLyAXWragwrNbq-5">
          <mxGeometry relative="1" as="geometry" />
        </mxCell>
        <mxCell id="_97RWvJLyAXWragwrNbq-3" value="Установить gpg4win" style="rounded=0;whiteSpace=wrap;html=1;fillColor=#ffe6cc;strokeColor=#d79b00;" vertex="1" parent="1">
          <mxGeometry x="80" y="150" width="160" height="60" as="geometry" />
        </mxCell>
        <mxCell id="_97RWvJLyAXWragwrNbq-11" style="edgeStyle=orthogonalEdgeStyle;rounded=0;orthogonalLoop=1;jettySize=auto;html=1;entryX=0.5;entryY=0;entryDx=0;entryDy=0;" edge="1" parent="1" source="_97RWvJLyAXWragwrNbq-4" target="_97RWvJLyAXWragwrNbq-10">
          <mxGeometry relative="1" as="geometry" />
        </mxCell>
        <mxCell id="_97RWvJLyAXWragwrNbq-4" value="Импортировать ключ&lt;br&gt;обучающегося" style="rounded=0;whiteSpace=wrap;html=1;fillColor=#dae8fc;strokeColor=#6c8ebf;" vertex="1" parent="1">
          <mxGeometry x="420" y="330" width="160" height="60" as="geometry" />
        </mxCell>
        <mxCell id="_97RWvJLyAXWragwrNbq-8" style="edgeStyle=orthogonalEdgeStyle;rounded=0;orthogonalLoop=1;jettySize=auto;html=1;entryX=0.5;entryY=0;entryDx=0;entryDy=0;" edge="1" parent="1" source="_97RWvJLyAXWragwrNbq-5" target="_97RWvJLyAXWragwrNbq-7">
          <mxGeometry relative="1" as="geometry" />
        </mxCell>
        <mxCell id="_97RWvJLyAXWragwrNbq-5" value="Создать пару ключей" style="rounded=0;whiteSpace=wrap;html=1;fillColor=#ffe6cc;strokeColor=#d79b00;" vertex="1" parent="1">
          <mxGeometry x="80" y="240" width="160" height="60" as="geometry" />
        </mxCell>
        <mxCell id="_97RWvJLyAXWragwrNbq-9" style="edgeStyle=orthogonalEdgeStyle;rounded=0;orthogonalLoop=1;jettySize=auto;html=1;" edge="1" parent="1" source="_97RWvJLyAXWragwrNbq-7">
          <mxGeometry relative="1" as="geometry">
            <mxPoint x="420" y="360" as="targetPoint" />
          </mxGeometry>
        </mxCell>
        <mxCell id="_97RWvJLyAXWragwrNbq-44" value="Moodle" style="edgeLabel;html=1;align=center;verticalAlign=middle;resizable=0;points=[];" vertex="1" connectable="0" parent="_97RWvJLyAXWragwrNbq-9">
          <mxGeometry x="0.6111" y="-1" relative="1" as="geometry">
            <mxPoint x="-45" y="-1" as="offset" />
          </mxGeometry>
        </mxCell>
        <mxCell id="_97RWvJLyAXWragwrNbq-7" value="Экспортировать открытый ключ в файл" style="rounded=0;whiteSpace=wrap;html=1;fillColor=#ffe6cc;strokeColor=#d79b00;" vertex="1" parent="1">
          <mxGeometry x="80" y="330" width="160" height="60" as="geometry" />
        </mxCell>
        <mxCell id="_97RWvJLyAXWragwrNbq-14" style="edgeStyle=orthogonalEdgeStyle;rounded=0;orthogonalLoop=1;jettySize=auto;html=1;entryX=0.5;entryY=0;entryDx=0;entryDy=0;" edge="1" parent="1" source="_97RWvJLyAXWragwrNbq-10" target="_97RWvJLyAXWragwrNbq-12">
          <mxGeometry relative="1" as="geometry" />
        </mxCell>
        <mxCell id="_97RWvJLyAXWragwrNbq-10" value="Зашифровать файл" style="rounded=0;whiteSpace=wrap;html=1;fillColor=#dae8fc;strokeColor=#6c8ebf;" vertex="1" parent="1">
          <mxGeometry x="420" y="420" width="160" height="60" as="geometry" />
        </mxCell>
        <mxCell id="_97RWvJLyAXWragwrNbq-17" style="edgeStyle=orthogonalEdgeStyle;rounded=0;orthogonalLoop=1;jettySize=auto;html=1;entryX=0.5;entryY=0;entryDx=0;entryDy=0;" edge="1" parent="1" source="_97RWvJLyAXWragwrNbq-12" target="_97RWvJLyAXWragwrNbq-16">
          <mxGeometry relative="1" as="geometry" />
        </mxCell>
        <mxCell id="_97RWvJLyAXWragwrNbq-18" style="edgeStyle=orthogonalEdgeStyle;rounded=0;orthogonalLoop=1;jettySize=auto;html=1;entryX=1;entryY=0.5;entryDx=0;entryDy=0;" edge="1" parent="1" source="_97RWvJLyAXWragwrNbq-12" target="_97RWvJLyAXWragwrNbq-15">
          <mxGeometry relative="1" as="geometry" />
        </mxCell>
        <mxCell id="_97RWvJLyAXWragwrNbq-12" value="Отправить файл с вопросом&amp;nbsp;" style="rounded=0;whiteSpace=wrap;html=1;fillColor=#dae8fc;strokeColor=#6c8ebf;" vertex="1" parent="1">
          <mxGeometry x="420" y="510" width="160" height="60" as="geometry" />
        </mxCell>
        <mxCell id="_97RWvJLyAXWragwrNbq-29" style="edgeStyle=orthogonalEdgeStyle;rounded=0;orthogonalLoop=1;jettySize=auto;html=1;entryX=0.5;entryY=0;entryDx=0;entryDy=0;" edge="1" parent="1" source="_97RWvJLyAXWragwrNbq-15" target="_97RWvJLyAXWragwrNbq-28">
          <mxGeometry relative="1" as="geometry" />
        </mxCell>
        <mxCell id="_97RWvJLyAXWragwrNbq-15" value="Импортировать открытый ключ преподавателя" style="rounded=0;whiteSpace=wrap;html=1;fillColor=#ffe6cc;strokeColor=#d79b00;" vertex="1" parent="1">
          <mxGeometry x="80" y="550" width="160" height="60" as="geometry" />
        </mxCell>
        <mxCell id="_97RWvJLyAXWragwrNbq-19" style="edgeStyle=orthogonalEdgeStyle;rounded=0;orthogonalLoop=1;jettySize=auto;html=1;" edge="1" parent="1" source="_97RWvJLyAXWragwrNbq-16" target="_97RWvJLyAXWragwrNbq-15">
          <mxGeometry relative="1" as="geometry" />
        </mxCell>
        <mxCell id="_97RWvJLyAXWragwrNbq-16" value="Экспортировать открытый ключ в файл" style="rounded=0;whiteSpace=wrap;html=1;fillColor=#dae8fc;strokeColor=#6c8ebf;" vertex="1" parent="1">
          <mxGeometry x="420" y="590" width="160" height="60" as="geometry" />
        </mxCell>
        <mxCell id="_97RWvJLyAXWragwrNbq-20" value="" style="points=[[0,0.5,0],[0.24,0,0],[0.5,0.28,0],[0.995,0.475,0],[0.5,0.72,0],[0.24,1,0]];verticalLabelPosition=bottom;sketch=0;html=1;verticalAlign=top;aspect=fixed;align=center;pointerEvents=1;shape=mxgraph.cisco19.key;fillColor=#60a917;strokeColor=#2D7600;fontColor=#ffffff;" vertex="1" parent="1">
          <mxGeometry x="480" y="297.5" width="50" height="22.5" as="geometry" />
        </mxCell>
        <mxCell id="_97RWvJLyAXWragwrNbq-21" value="" style="points=[[0,0.5,0],[0.24,0,0],[0.5,0.28,0],[0.995,0.475,0],[0.5,0.72,0],[0.24,1,0]];verticalLabelPosition=bottom;sketch=0;html=1;verticalAlign=top;aspect=fixed;align=center;pointerEvents=1;shape=mxgraph.cisco19.key;fillColor=#e51400;strokeColor=#B20000;fontColor=#ffffff;" vertex="1" parent="1">
          <mxGeometry x="475" y="287.5" width="50" height="22.5" as="geometry" />
        </mxCell>
        <mxCell id="_97RWvJLyAXWragwrNbq-23" value="" style="points=[[0,0.5,0],[0.24,0,0],[0.5,0.28,0],[0.995,0.475,0],[0.5,0.72,0],[0.24,1,0]];verticalLabelPosition=bottom;sketch=0;html=1;verticalAlign=top;aspect=fixed;align=center;pointerEvents=1;shape=mxgraph.cisco19.key;fillColor=#60a917;strokeColor=#2D7600;fontColor=#ffffff;" vertex="1" parent="1">
          <mxGeometry x="350" y="640" width="50" height="22.5" as="geometry" />
        </mxCell>
        <mxCell id="_97RWvJLyAXWragwrNbq-24" value="" style="points=[[0,0.5,0],[0.24,0,0],[0.5,0.28,0],[0.995,0.475,0],[0.5,0.72,0],[0.24,1,0]];verticalLabelPosition=bottom;sketch=0;html=1;verticalAlign=top;aspect=fixed;align=center;pointerEvents=1;shape=mxgraph.cisco19.key;fillColor=#60a917;strokeColor=#2D7600;fontColor=#ffffff;" vertex="1" parent="1">
          <mxGeometry x="320" y="320" width="50" height="22.5" as="geometry" />
        </mxCell>
        <mxCell id="_97RWvJLyAXWragwrNbq-25" value="Расшифровать файл с ответом" style="rounded=0;whiteSpace=wrap;html=1;fillColor=#dae8fc;strokeColor=#6c8ebf;" vertex="1" parent="1">
          <mxGeometry x="420" y="900" width="160" height="60" as="geometry" />
        </mxCell>
        <mxCell id="_97RWvJLyAXWragwrNbq-26" value="?" style="shape=document;whiteSpace=wrap;html=1;boundedLbl=1;fillColor=#f8cecc;strokeColor=#b85450;" vertex="1" parent="1">
          <mxGeometry x="350" y="490" width="40" height="40" as="geometry" />
        </mxCell>
        <mxCell id="_97RWvJLyAXWragwrNbq-31" style="edgeStyle=orthogonalEdgeStyle;rounded=0;orthogonalLoop=1;jettySize=auto;html=1;entryX=0.5;entryY=0;entryDx=0;entryDy=0;" edge="1" parent="1" source="_97RWvJLyAXWragwrNbq-28" target="_97RWvJLyAXWragwrNbq-30">
          <mxGeometry relative="1" as="geometry" />
        </mxCell>
        <mxCell id="_97RWvJLyAXWragwrNbq-28" value="Расшифровать файл и проверить ЭЦП &lt;br&gt;преподавателя" style="rounded=0;whiteSpace=wrap;html=1;fillColor=#ffe6cc;strokeColor=#d79b00;" vertex="1" parent="1">
          <mxGeometry x="80" y="640" width="160" height="60" as="geometry" />
        </mxCell>
        <mxCell id="_97RWvJLyAXWragwrNbq-34" style="edgeStyle=orthogonalEdgeStyle;rounded=0;orthogonalLoop=1;jettySize=auto;html=1;entryX=0.5;entryY=0;entryDx=0;entryDy=0;" edge="1" parent="1" source="_97RWvJLyAXWragwrNbq-30" target="_97RWvJLyAXWragwrNbq-33">
          <mxGeometry relative="1" as="geometry" />
        </mxCell>
        <mxCell id="_97RWvJLyAXWragwrNbq-30" value="Сформировать файл с ответом" style="rounded=0;whiteSpace=wrap;html=1;fillColor=#ffe6cc;strokeColor=#d79b00;" vertex="1" parent="1">
          <mxGeometry x="80" y="730" width="160" height="60" as="geometry" />
        </mxCell>
        <mxCell id="_97RWvJLyAXWragwrNbq-32" value="!" style="shape=document;whiteSpace=wrap;html=1;boundedLbl=1;fillColor=#d5e8d4;strokeColor=#82b366;" vertex="1" parent="1">
          <mxGeometry x="260" y="740" width="40" height="40" as="geometry" />
        </mxCell>
        <mxCell id="_97RWvJLyAXWragwrNbq-40" style="edgeStyle=orthogonalEdgeStyle;rounded=0;orthogonalLoop=1;jettySize=auto;html=1;entryX=0.5;entryY=0;entryDx=0;entryDy=0;" edge="1" parent="1" source="_97RWvJLyAXWragwrNbq-33" target="_97RWvJLyAXWragwrNbq-36">
          <mxGeometry relative="1" as="geometry" />
        </mxCell>
        <mxCell id="_97RWvJLyAXWragwrNbq-33" value="Зашифровать файл с ответом" style="rounded=0;whiteSpace=wrap;html=1;fillColor=#ffe6cc;strokeColor=#d79b00;" vertex="1" parent="1">
          <mxGeometry x="80" y="820" width="160" height="60" as="geometry" />
        </mxCell>
        <mxCell id="_97RWvJLyAXWragwrNbq-35" value="!" style="shape=document;whiteSpace=wrap;html=1;boundedLbl=1;fillColor=#f8cecc;strokeColor=#b85450;" vertex="1" parent="1">
          <mxGeometry x="260" y="830" width="40" height="40" as="geometry" />
        </mxCell>
        <mxCell id="_97RWvJLyAXWragwrNbq-37" style="edgeStyle=orthogonalEdgeStyle;rounded=0;orthogonalLoop=1;jettySize=auto;html=1;" edge="1" parent="1" source="_97RWvJLyAXWragwrNbq-36" target="_97RWvJLyAXWragwrNbq-25">
          <mxGeometry relative="1" as="geometry" />
        </mxCell>
        <mxCell id="_97RWvJLyAXWragwrNbq-36" value="Отправить зашифрованный файл с ответом" style="rounded=0;whiteSpace=wrap;html=1;fillColor=#ffe6cc;strokeColor=#d79b00;" vertex="1" parent="1">
          <mxGeometry x="80" y="900" width="160" height="60" as="geometry" />
        </mxCell>
        <mxCell id="_97RWvJLyAXWragwrNbq-41" value="!" style="shape=document;whiteSpace=wrap;html=1;boundedLbl=1;fillColor=#f8cecc;strokeColor=#b85450;" vertex="1" parent="1">
          <mxGeometry x="305" y="940" width="40" height="40" as="geometry" />
        </mxCell>
        <mxCell id="_97RWvJLyAXWragwrNbq-43" value="!" style="shape=document;whiteSpace=wrap;html=1;boundedLbl=1;fillColor=#d5e8d4;strokeColor=#82b366;" vertex="1" parent="1">
          <mxGeometry x="590" y="910" width="40" height="40" as="geometry" />
        </mxCell>
        <mxCell id="_97RWvJLyAXWragwrNbq-47" value="Открытый &lt;br&gt;ключ&lt;br&gt;&amp;nbsp;преподавателя" style="text;html=1;align=center;verticalAlign=middle;resizable=0;points=[];autosize=1;strokeColor=none;fillColor=none;" vertex="1" parent="1">
          <mxGeometry x="320" y="662.5" width="110" height="60" as="geometry" />
        </mxCell>
        <mxCell id="_97RWvJLyAXWragwrNbq-48" value="Открытый &lt;br&gt;ключ&lt;br&gt;обучающегося" style="text;html=1;align=center;verticalAlign=middle;resizable=0;points=[];autosize=1;strokeColor=none;fillColor=none;" vertex="1" parent="1">
          <mxGeometry x="290" y="260" width="110" height="60" as="geometry" />
        </mxCell>
        <mxCell id="_97RWvJLyAXWragwrNbq-49" value="Обучающийся&amp;nbsp;" style="text;html=1;strokeColor=none;fillColor=none;align=center;verticalAlign=middle;whiteSpace=wrap;rounded=0;" vertex="1" parent="1">
          <mxGeometry x="130" y="100" width="60" height="30" as="geometry" />
        </mxCell>
        <mxCell id="_97RWvJLyAXWragwrNbq-50" value="Преподаватель" style="text;html=1;strokeColor=none;fillColor=none;align=center;verticalAlign=middle;whiteSpace=wrap;rounded=0;" vertex="1" parent="1">
          <mxGeometry x="470" y="100" width="60" height="30" as="geometry" />
        </mxCell>
        <mxCell id="_97RWvJLyAXWragwrNbq-51" value="" style="points=[[0,0.5,0],[0.24,0,0],[0.5,0.28,0],[0.995,0.475,0],[0.5,0.72,0],[0.24,1,0]];verticalLabelPosition=bottom;sketch=0;html=1;verticalAlign=top;aspect=fixed;align=center;pointerEvents=1;shape=mxgraph.cisco19.key;fillColor=#60a917;strokeColor=#2D7600;fontColor=#ffffff;" vertex="1" parent="1">
          <mxGeometry x="15" y="263.75" width="50" height="22.5" as="geometry" />
        </mxCell>
        <mxCell id="_97RWvJLyAXWragwrNbq-52" value="" style="points=[[0,0.5,0],[0.24,0,0],[0.5,0.28,0],[0.995,0.475,0],[0.5,0.72,0],[0.24,1,0]];verticalLabelPosition=bottom;sketch=0;html=1;verticalAlign=top;aspect=fixed;align=center;pointerEvents=1;shape=mxgraph.cisco19.key;fillColor=#e51400;strokeColor=#B20000;fontColor=#ffffff;" vertex="1" parent="1">
          <mxGeometry x="10" y="253.75" width="50" height="22.5" as="geometry" />
        </mxCell>
      </root>
    </mxGraphModel>
  </diagram>
</mxfile>
